<?xml version="1.0" encoding="UTF-8" standalone="no"?>
<svg xmlns="http://www.w3.org/2000/svg" width="720" height="720" viewBox="0 0 720 720" role="img" aria-label="McPherson Lab dose response">
<rect x="0" y="0" width="720" height="720" fill="white" opacity="0"/>
<rect x="90" y="40" width="590" height="590" fill="white" stroke="#d3d3d3" stroke-width="2"/>
<text x="102" y="76" font-family="Arial, Helvetica, sans-serif" font-size="48" font-weight="700" fill="#003366">McPherson Lab</text>
<text x="102" y="112" font-family="Arial, Helvetica, sans-serif" font-size="22" font-style="italic" fill="#003366">the pharmacology of infectious diseases</text>
<text x="90.00" y="670" text-anchor="middle" font-family="Arial, Helvetica, sans-serif" font-size="16" fill="#d3d3d3">10<tspan baseline-shift="super" font-size="11">-8</tspan></text>
<text x="208.00" y="670" text-anchor="middle" font-family="Arial, Helvetica, sans-serif" font-size="16" fill="#d3d3d3">10<tspan baseline-shift="super" font-size="11">-7</tspan></text>
<text x="326.00" y="670" text-anchor="middle" font-family="Arial, Helvetica, sans-serif" font-size="16" fill="#d3d3d3">10<tspan baseline-shift="super" font-size="11">-6</tspan></text>
<text x="444.00" y="670" text-anchor="middle" font-family="Arial, Helvetica, sans-serif" font-size="16" fill="#d3d3d3">10<tspan baseline-shift="super" font-size="11">-5</tspan></text>
<text x="562.00" y="670" text-anchor="middle" font-family="Arial, Helvetica, sans-serif" font-size="16" fill="#d3d3d3">10<tspan baseline-shift="super" font-size="11">-4</tspan></text>
<text x="680.00" y="670" text-anchor="middle" font-family="Arial, Helvetica, sans-serif" font-size="16" fill="#d3d3d3">10<tspan baseline-shift="super" font-size="11">-3</tspan></text>
<text x="74" y="636.00" text-anchor="end" font-family="Arial, Helvetica, sans-serif" font-size="16" fill="#d3d3d3">0</text>
<text x="74" y="367.82" text-anchor="end" font-family="Arial, Helvetica, sans-serif" font-size="16" fill="#d3d3d3">0.5</text>
<text x="74" y="99.64" text-anchor="end" font-family="Arial, Helvetica, sans-serif" font-size="16" fill="#d3d3d3">1</text>

  <path d="M 90.00 563.96 L 91.48 562.63 L 92.96 561.28 L 94.44 559.91 L 95.91 558.52 L 97.39 557.10 L 98.87 555.66 L 100.35 554.20 L 101.83 552.71 L 103.31 551.20 L 104.79 549.67 L 106.27 548.11 L 107.74 546.53 L 109.22 544.92 L 110.70 543.29 L 112.18 541.64 L 113.66 539.96 L 115.14 538.25 L 116.62 536.53 L 118.10 534.78 L 119.57 533.00 L 121.05 531.20 L 122.53 529.37 L 124.01 527.52 L 125.49 525.64 L 126.97 523.74 L 128.45 521.82 L 129.92 519.87 L 131.40 517.89 L 132.88 515.89 L 134.36 513.87 L 135.84 511.82 L 137.32 509.75 L 138.80 507.65 L 140.28 505.53 L 141.75 503.39 L 143.23 501.22 L 144.71 499.03 L 146.19 496.82 L 147.67 494.58 L 149.15 492.32 L 150.63 490.03 L 152.11 487.73 L 153.58 485.40 L 155.06 483.05 L 156.54 480.68 L 158.02 478.29 L 159.50 475.88 L 160.98 473.45 L 162.46 471.00 L 163.93 468.53 L 165.41 466.04 L 166.89 463.53 L 168.37 461.00 L 169.85 458.46 L 171.33 455.90 L 172.81 453.32 L 174.29 450.73 L 175.76 448.12 L 177.24 445.49 L 178.72 442.85 L 180.20 440.20 L 181.68 437.54 L 183.16 434.86 L 184.64 432.17 L 186.12 429.47 L 187.59 426.76 L 189.07 424.04 L 190.55 421.31 L 192.03 418.57 L 193.51 415.82 L 194.99 413.07 L 196.47 410.31 L 197.94 407.54 L 199.42 404.77 L 200.90 401.99 L 202.38 399.22 L 203.86 396.43 L 205.34 393.65 L 206.82 390.86 L 208.30 388.08 L 209.77 385.29 L 211.25 382.51 L 212.73 379.73 L 214.21 376.95 L 215.69 374.17 L 217.17 371.39 L 218.65 368.62 L 220.13 365.86 L 221.60 363.10 L 223.08 360.35 L 224.56 357.61 L 226.04 354.87 L 227.52 352.15 L 229.00 349.43 L 230.48 346.72 L 231.95 344.03 L 233.43 341.34 L 234.91 338.67 L 236.39 336.01 L 237.87 333.36 L 239.35 330.73 L 240.83 328.11 L 242.31 325.51 L 243.78 322.92 L 245.26 320.35 L 246.74 317.80 L 248.22 315.26 L 249.70 312.74 L 251.18 310.24 L 252.66 307.76 L 254.14 305.29 L 255.61 302.85 L 257.09 300.42 L 258.57 298.02 L 260.05 295.64 L 261.53 293.28 L 263.01 290.94 L 264.49 288.62 L 265.96 286.32 L 267.44 284.05 L 268.92 281.80 L 270.40 279.57 L 271.88 277.36 L 273.36 275.18 L 274.84 273.02 L 276.32 270.89 L 277.79 268.78 L 279.27 266.69 L 280.75 264.63 L 282.23 262.59 L 283.71 260.58 L 285.19 258.59 L 286.67 256.62 L 288.15 254.68 L 289.62 252.77 L 291.10 250.88 L 292.58 249.01 L 294.06 247.17 L 295.54 245.35 L 297.02 243.56 L 298.50 241.79 L 299.97 240.05 L 301.45 238.33 L 302.93 236.64 L 304.41 234.97 L 305.89 233.33 L 307.37 231.71 L 308.85 230.11 L 310.33 228.54 L 311.80 226.99 L 313.28 225.47 L 314.76 223.97 L 316.24 222.49 L 317.72 221.03 L 319.20 219.60 L 320.68 218.19 L 322.16 216.81 L 323.63 215.45 L 325.11 214.11 L 326.59 212.79 L 328.07 211.49 L 329.55 210.22 L 331.03 208.97 L 332.51 207.73 L 333.98 206.52 L 335.46 205.33 L 336.94 204.17 L 338.42 203.02 L 339.90 201.89 L 341.38 200.78 L 342.86 199.69 L 344.34 198.62 L 345.81 197.57 L 347.29 196.54 L 348.77 195.53 L 350.25 194.54 L 351.73 193.56 L 353.21 192.61 L 354.69 191.67 L 356.17 190.74 L 357.64 189.84 L 359.12 188.95 L 360.60 188.08 L 362.08 187.23 L 363.56 186.39 L 365.04 185.57 L 366.52 184.76 L 367.99 183.97 L 369.47 183.20 L 370.95 182.44 L 372.43 181.69 L 373.91 180.96 L 375.39 180.24 L 376.87 179.54 L 378.35 178.85 L 379.82 178.18 L 381.30 177.52 L 382.78 176.87 L 384.26 176.24 L 385.74 175.61 L 387.22 175.00 L 388.70 174.41 L 390.18 173.82 L 391.65 173.25 L 393.13 172.69 L 394.61 172.14 L 396.09 171.60 L 397.57 171.07 L 399.05 170.55 L 400.53 170.05 L 402.01 169.55 L 403.48 169.07 L 404.96 168.59 L 406.44 168.13 L 407.92 167.67 L 409.40 167.22 L 410.88 166.79 L 412.36 166.36 L 413.83 165.94 L 415.31 165.53 L 416.79 165.13 L 418.27 164.74 L 419.75 164.35 L 421.23 163.98 L 422.71 163.61 L 424.19 163.25 L 425.66 162.89 L 427.14 162.55 L 428.62 162.21 L 430.10 161.88 L 431.58 161.56 L 433.06 161.24 L 434.54 160.93 L 436.02 160.63 L 437.49 160.33 L 438.97 160.04 L 440.45 159.76 L 441.93 159.48 L 443.41 159.21 L 444.89 158.94 L 446.37 158.68 L 447.84 158.43 L 449.32 158.18 L 450.80 157.94 L 452.28 157.70 L 453.76 157.46 L 455.24 157.24 L 456.72 157.01 L 458.20 156.80 L 459.67 156.58 L 461.15 156.37 L 462.63 156.17 L 464.11 155.97 L 465.59 155.78 L 467.07 155.59 L 468.55 155.40 L 470.03 155.22 L 471.50 155.04 L 472.98 154.86 L 474.46 154.69 L 475.94 154.53 L 477.42 154.36 L 478.90 154.20 L 480.38 154.05 L 481.85 153.90 L 483.33 153.75 L 484.81 153.60 L 486.29 153.46 L 487.77 153.32 L 489.25 153.18 L 490.73 153.05 L 492.21 152.92 L 493.68 152.79 L 495.16 152.67 L 496.64 152.55 L 498.12 152.43 L 499.60 152.31 L 501.08 152.20 L 502.56 152.09 L 504.04 151.98 L 505.51 151.87 L 506.99 151.77 L 508.47 151.66 L 509.95 151.57 L 511.43 151.47 L 512.91 151.37 L 514.39 151.28 L 515.86 151.19 L 517.34 151.10 L 518.82 151.01 L 520.30 150.93 L 521.78 150.85 L 523.26 150.77 L 524.74 150.69 L 526.22 150.61 L 527.69 150.53 L 529.17 150.46 L 530.65 150.39 L 532.13 150.32 L 533.61 150.25 L 535.09 150.18 L 536.57 150.11 L 538.05 150.05 L 539.52 149.99 L 541.00 149.93 L 542.48 149.87 L 543.96 149.81 L 545.44 149.75 L 546.92 149.69 L 548.40 149.64 L 549.87 149.58 L 551.35 149.53 L 552.83 149.48 L 554.31 149.43 L 555.79 149.38 L 557.27 149.33 L 558.75 149.29 L 560.23 149.24 L 561.70 149.20 L 563.18 149.15 L 564.66 149.11 L 566.14 149.07 L 567.62 149.03 L 569.10 148.99 L 570.58 148.95 L 572.06 148.91 L 573.53 148.87 L 575.01 148.84 L 576.49 148.80 L 577.97 148.77 L 579.45 148.73 L 580.93 148.70 L 582.41 148.67 L 583.88 148.63 L 585.36 148.60 L 586.84 148.57 L 588.32 148.54 L 589.80 148.51 L 591.28 148.49 L 592.76 148.46 L 594.24 148.43 L 595.71 148.41 L 597.19 148.38 L 598.67 148.35 L 600.15 148.33 L 601.63 148.31 L 603.11 148.28 L 604.59 148.26 L 606.07 148.24 L 607.54 148.21 L 609.02 148.19 L 610.50 148.17 L 611.98 148.15 L 613.46 148.13 L 614.94 148.11 L 616.42 148.09 L 617.89 148.07 L 619.37 148.06 L 620.85 148.04 L 622.33 148.02 L 623.81 148.00 L 625.29 147.99 L 626.77 147.97 L 628.25 147.96 L 629.72 147.94 L 631.20 147.92 L 632.68 147.91 L 634.16 147.89 L 635.64 147.88 L 637.12 147.87 L 638.60 147.85 L 640.08 147.84 L 641.55 147.83 L 643.03 147.81 L 644.51 147.80 L 645.99 147.79 L 647.47 147.78 L 648.95 147.77 L 650.43 147.76 L 651.90 147.74 L 653.38 147.73 L 654.86 147.72 L 656.34 147.71 L 657.82 147.70 L 659.30 147.69 L 660.78 147.68 L 662.26 147.67 L 663.73 147.67 L 665.21 147.66 L 666.69 147.65 L 668.17 147.64 L 669.65 147.63 L 671.13 147.62 L 672.61 147.61 L 674.09 147.61 L 675.56 147.60 L 677.04 147.59 L 678.52 147.58 L 680.00 147.58" fill="none" stroke="#003366" stroke-width="4" stroke-linecap="round" opacity="1.0"
        stroke-dasharray="793.07" stroke-dashoffset="793.07">
    <animate attributeName="stroke-dashoffset" from="793.07" to="0" dur="2.2s" begin="0s" fill="freeze" />
  </path>

  <path d="M 90.00 628.50 L 91.48 628.43 L 92.96 628.37 L 94.44 628.29 L 95.91 628.22 L 97.39 628.14 L 98.87 628.06 L 100.35 627.97 L 101.83 627.88 L 103.31 627.79 L 104.79 627.70 L 106.27 627.59 L 107.74 627.49 L 109.22 627.38 L 110.70 627.26 L 112.18 627.14 L 113.66 627.02 L 115.14 626.89 L 116.62 626.75 L 118.10 626.61 L 119.57 626.46 L 121.05 626.31 L 122.53 626.15 L 124.01 625.98 L 125.49 625.81 L 126.97 625.62 L 128.45 625.43 L 129.92 625.23 L 131.40 625.03 L 132.88 624.81 L 134.36 624.59 L 135.84 624.35 L 137.32 624.11 L 138.80 623.85 L 140.28 623.59 L 141.75 623.31 L 143.23 623.02 L 144.71 622.72 L 146.19 622.41 L 147.67 622.08 L 149.15 621.74 L 150.63 621.39 L 152.11 621.02 L 153.58 620.64 L 155.06 620.24 L 156.54 619.83 L 158.02 619.39 L 159.50 618.94 L 160.98 618.48 L 162.46 617.99 L 163.93 617.48 L 165.41 616.96 L 166.89 616.41 L 168.37 615.84 L 169.85 615.25 L 171.33 614.63 L 172.81 613.99 L 174.29 613.33 L 175.76 612.64 L 177.24 611.92 L 178.72 611.18 L 180.20 610.41 L 181.68 609.61 L 183.16 608.78 L 184.64 607.91 L 186.12 607.02 L 187.59 606.10 L 189.07 605.14 L 190.55 604.14 L 192.03 603.11 L 193.51 602.05 L 194.99 600.95 L 196.47 599.80 L 197.94 598.63 L 199.42 597.41 L 200.90 596.15 L 202.38 594.85 L 203.86 593.50 L 205.34 592.12 L 206.82 590.69 L 208.30 589.21 L 209.77 587.69 L 211.25 586.13 L 212.73 584.52 L 214.21 582.86 L 215.69 581.15 L 217.17 579.40 L 218.65 577.60 L 220.13 575.75 L 221.60 573.85 L 223.08 571.91 L 224.56 569.91 L 226.04 567.87 L 227.52 565.78 L 229.00 563.64 L 230.48 561.46 L 231.95 559.23 L 233.43 556.95 L 234.91 554.62 L 236.39 552.26 L 237.87 549.85 L 239.35 547.39 L 240.83 544.90 L 242.31 542.36 L 243.78 539.79 L 245.26 537.18 L 246.74 534.54 L 248.22 531.86 L 249.70 529.15 L 251.18 526.42 L 252.66 523.65 L 254.14 520.86 L 255.61 518.05 L 257.09 515.22 L 258.57 512.37 L 260.05 509.50 L 261.53 506.62 L 263.01 503.74 L 264.49 500.84 L 265.96 497.94 L 267.44 495.04 L 268.92 492.14 L 270.40 489.24 L 271.88 486.35 L 273.36 483.47 L 274.84 480.60 L 276.32 477.74 L 277.79 474.90 L 279.27 472.08 L 280.75 469.28 L 282.23 466.51 L 283.71 463.76 L 285.19 461.04 L 286.67 458.35 L 288.15 455.69 L 289.62 453.07 L 291.10 450.48 L 292.58 447.93 L 294.06 445.42 L 295.54 442.95 L 297.02 440.52 L 298.50 438.13 L 299.97 435.79 L 301.45 433.50 L 302.93 431.25 L 304.41 429.04 L 305.89 426.89 L 307.37 424.78 L 308.85 422.72 L 310.33 420.70 L 311.80 418.74 L 313.28 416.82 L 314.76 414.95 L 316.24 413.13 L 317.72 411.36 L 319.20 409.64 L 320.68 407.96 L 322.16 406.33 L 323.63 404.75 L 325.11 403.21 L 326.59 401.72 L 328.07 400.27 L 329.55 398.87 L 331.03 397.50 L 332.51 396.19 L 333.98 394.91 L 335.46 393.68 L 336.94 392.48 L 338.42 391.32 L 339.90 390.21 L 341.38 389.13 L 342.86 388.08 L 344.34 387.08 L 345.81 386.10 L 347.29 385.16 L 348.77 384.26 L 350.25 383.38 L 351.73 382.54 L 353.21 381.73 L 354.69 380.94 L 356.17 380.19 L 357.64 379.46 L 359.12 378.76 L 360.60 378.09 L 362.08 377.44 L 363.56 376.81 L 365.04 376.21 L 366.52 375.64 L 367.99 375.08 L 369.47 374.54 L 370.95 374.03 L 372.43 373.53 L 373.91 373.06 L 375.39 372.60 L 376.87 372.16 L 378.35 371.74 L 379.82 371.34 L 381.30 370.95 L 382.78 370.57 L 384.26 370.21 L 385.74 369.87 L 387.22 369.54 L 388.70 369.22 L 390.18 368.91 L 391.65 368.62 L 393.13 368.34 L 394.61 368.07 L 396.09 367.81 L 397.57 367.56 L 399.05 367.32 L 400.53 367.10 L 402.01 366.88 L 403.48 366.67 L 404.96 366.46 L 406.44 366.27 L 407.92 366.09 L 409.40 365.91 L 410.88 365.74 L 412.36 365.57 L 413.83 365.42 L 415.31 365.27 L 416.79 365.12 L 418.27 364.98 L 419.75 364.85 L 421.23 364.72 L 422.71 364.60 L 424.19 364.48 L 425.66 364.37 L 427.14 364.27 L 428.62 364.16 L 430.10 364.06 L 431.58 363.97 L 433.06 363.88 L 434.54 363.79 L 436.02 363.71 L 437.49 363.63 L 438.97 363.55 L 440.45 363.48 L 441.93 363.41 L 443.41 363.34 L 444.89 363.28 L 446.37 363.22 L 447.84 363.16 L 449.32 363.10 L 450.80 363.05 L 452.28 363.00 L 453.76 362.95 L 455.24 362.90 L 456.72 362.85 L 458.20 362.81 L 459.67 362.77 L 461.15 362.73 L 462.63 362.69 L 464.11 362.65 L 465.59 362.62 L 467.07 362.58 L 468.55 362.55 L 470.03 362.52 L 471.50 362.49 L 472.98 362.46 L 474.46 362.44 L 475.94 362.41 L 477.42 362.38 L 478.90 362.36 L 480.38 362.34 L 481.85 362.32 L 483.33 362.29 L 484.81 362.27 L 486.29 362.25 L 487.77 362.24 L 489.25 362.22 L 490.73 362.20 L 492.21 362.19 L 493.68 362.17 L 495.16 362.16 L 496.64 362.14 L 498.12 362.13 L 499.60 362.11 L 501.08 362.10 L 502.56 362.09 L 504.04 362.08 L 505.51 362.07 L 506.99 362.06 L 508.47 362.05 L 509.95 362.04 L 511.43 362.03 L 512.91 362.02 L 514.39 362.01 L 515.86 362.00 L 517.34 361.99 L 518.82 361.99 L 520.30 361.98 L 521.78 361.97 L 523.26 361.97 L 524.74 361.96 L 526.22 361.95 L 527.69 361.95 L 529.17 361.94 L 530.65 361.94 L 532.13 361.93 L 533.61 361.93 L 535.09 361.92 L 536.57 361.92 L 538.05 361.91 L 539.52 361.91 L 541.00 361.91 L 542.48 361.90 L 543.96 361.90 L 545.44 361.90 L 546.92 361.89 L 548.40 361.89 L 549.87 361.89 L 551.35 361.88 L 552.83 361.88 L 554.31 361.88 L 555.79 361.88 L 557.27 361.87 L 558.75 361.87 L 560.23 361.87 L 561.70 361.87 L 563.18 361.86 L 564.66 361.86 L 566.14 361.86 L 567.62 361.86 L 569.10 361.86 L 570.58 361.86 L 572.06 361.85 L 573.53 361.85 L 575.01 361.85 L 576.49 361.85 L 577.97 361.85 L 579.45 361.85 L 580.93 361.85 L 582.41 361.84 L 583.88 361.84 L 585.36 361.84 L 586.84 361.84 L 588.32 361.84 L 589.80 361.84 L 591.28 361.84 L 592.76 361.84 L 594.24 361.84 L 595.71 361.84 L 597.19 361.84 L 598.67 361.83 L 600.15 361.83 L 601.63 361.83 L 603.11 361.83 L 604.59 361.83 L 606.07 361.83 L 607.54 361.83 L 609.02 361.83 L 610.50 361.83 L 611.98 361.83 L 613.46 361.83 L 614.94 361.83 L 616.42 361.83 L 617.89 361.83 L 619.37 361.83 L 620.85 361.83 L 622.33 361.83 L 623.81 361.83 L 625.29 361.83 L 626.77 361.83 L 628.25 361.83 L 629.72 361.82 L 631.20 361.82 L 632.68 361.82 L 634.16 361.82 L 635.64 361.82 L 637.12 361.82 L 638.60 361.82 L 640.08 361.82 L 641.55 361.82 L 643.03 361.82 L 644.51 361.82 L 645.99 361.82 L 647.47 361.82 L 648.95 361.82 L 650.43 361.82 L 651.90 361.82 L 653.38 361.82 L 654.86 361.82 L 656.34 361.82 L 657.82 361.82 L 659.30 361.82 L 660.78 361.82 L 662.26 361.82 L 663.73 361.82 L 665.21 361.82 L 666.69 361.82 L 668.17 361.82 L 669.65 361.82 L 671.13 361.82 L 672.61 361.82 L 674.09 361.82 L 675.56 361.82 L 677.04 361.82 L 678.52 361.82 L 680.00 361.82" fill="none" stroke="#003366" stroke-width="4" stroke-linecap="round" opacity="0.67"
        stroke-dasharray="713.54" stroke-dashoffset="713.54">
    <animate attributeName="stroke-dashoffset" from="713.54" to="0" dur="2.2s" begin="0.1s" fill="freeze" />
  </path>

  <path d="M 90.00 629.90 L 91.48 629.90 L 92.96 629.90 L 94.44 629.89 L 95.91 629.89 L 97.39 629.88 L 98.87 629.88 L 100.35 629.87 L 101.83 629.87 L 103.31 629.86 L 104.79 629.85 L 106.27 629.85 L 107.74 629.84 L 109.22 629.83 L 110.70 629.83 L 112.18 629.82 L 113.66 629.81 L 115.14 629.80 L 116.62 629.79 L 118.10 629.78 L 119.57 629.77 L 121.05 629.76 L 122.53 629.75 L 124.01 629.74 L 125.49 629.73 L 126.97 629.72 L 128.45 629.71 L 129.92 629.69 L 131.40 629.68 L 132.88 629.67 L 134.36 629.65 L 135.84 629.64 L 137.32 629.62 L 138.80 629.60 L 140.28 629.58 L 141.75 629.57 L 143.23 629.55 L 144.71 629.53 L 146.19 629.51 L 147.67 629.48 L 149.15 629.46 L 150.63 629.44 L 152.11 629.41 L 153.58 629.39 L 155.06 629.36 L 156.54 629.33 L 158.02 629.30 L 159.50 629.27 L 160.98 629.24 L 162.46 629.21 L 163.93 629.17 L 165.41 629.13 L 166.89 629.10 L 168.37 629.06 L 169.85 629.01 L 171.33 628.97 L 172.81 628.93 L 174.29 628.88 L 175.76 628.83 L 177.24 628.78 L 178.72 628.72 L 180.20 628.67 L 181.68 628.61 L 183.16 628.55 L 184.64 628.48 L 186.12 628.42 L 187.59 628.35 L 189.07 628.27 L 190.55 628.20 L 192.03 628.12 L 193.51 628.03 L 194.99 627.95 L 196.47 627.86 L 197.94 627.76 L 199.42 627.66 L 200.90 627.56 L 202.38 627.45 L 203.86 627.34 L 205.34 627.22 L 206.82 627.10 L 208.30 626.97 L 209.77 626.84 L 211.25 626.70 L 212.73 626.56 L 214.21 626.41 L 215.69 626.25 L 217.17 626.08 L 218.65 625.91 L 220.13 625.73 L 221.60 625.55 L 223.08 625.35 L 224.56 625.15 L 226.04 624.93 L 227.52 624.71 L 229.00 624.48 L 230.48 624.24 L 231.95 623.99 L 233.43 623.72 L 234.91 623.45 L 236.39 623.16 L 237.87 622.87 L 239.35 622.55 L 240.83 622.23 L 242.31 621.89 L 243.78 621.54 L 245.26 621.17 L 246.74 620.79 L 248.22 620.39 L 249.70 619.97 L 251.18 619.53 L 252.66 619.08 L 254.14 618.61 L 255.61 618.12 L 257.09 617.60 L 258.57 617.07 L 260.05 616.51 L 261.53 615.93 L 263.01 615.32 L 264.49 614.69 L 265.96 614.03 L 267.44 613.35 L 268.92 612.64 L 270.40 611.90 L 271.88 611.12 L 273.36 610.32 L 274.84 609.48 L 276.32 608.61 L 277.79 607.70 L 279.27 606.76 L 280.75 605.78 L 282.23 604.76 L 283.71 603.70 L 285.19 602.59 L 286.67 601.44 L 288.15 600.25 L 289.62 599.01 L 291.10 597.72 L 292.58 596.38 L 294.06 594.99 L 295.54 593.55 L 297.02 592.05 L 298.50 590.50 L 299.97 588.89 L 301.45 587.21 L 302.93 585.48 L 304.41 583.68 L 305.89 581.81 L 307.37 579.88 L 308.85 577.88 L 310.33 575.81 L 311.80 573.66 L 313.28 571.44 L 314.76 569.14 L 316.24 566.77 L 317.72 564.32 L 319.20 561.78 L 320.68 559.16 L 322.16 556.46 L 323.63 553.67 L 325.11 550.79 L 326.59 547.82 L 328.07 544.77 L 329.55 541.62 L 331.03 538.37 L 332.51 535.04 L 333.98 531.61 L 335.46 528.08 L 336.94 524.46 L 338.42 520.75 L 339.90 516.93 L 341.38 513.02 L 342.86 509.02 L 344.34 504.91 L 345.81 500.71 L 347.29 496.42 L 348.77 492.03 L 350.25 487.55 L 351.73 482.97 L 353.21 478.31 L 354.69 473.56 L 356.17 468.72 L 357.64 463.80 L 359.12 458.79 L 360.60 453.71 L 362.08 448.55 L 363.56 443.31 L 365.04 438.01 L 366.52 432.64 L 367.99 427.22 L 369.47 421.73 L 370.95 416.19 L 372.43 410.60 L 373.91 404.97 L 375.39 399.30 L 376.87 393.59 L 378.35 387.85 L 379.82 382.09 L 381.30 376.31 L 382.78 370.52 L 384.26 364.72 L 385.74 358.92 L 387.22 353.12 L 388.70 347.32 L 390.18 341.54 L 391.65 335.78 L 393.13 330.05 L 394.61 324.34 L 396.09 318.67 L 397.57 313.04 L 399.05 307.45 L 400.53 301.91 L 402.01 296.42 L 403.48 290.99 L 404.96 285.62 L 406.44 280.32 L 407.92 275.09 L 409.40 269.93 L 410.88 264.85 L 412.36 259.84 L 413.83 254.92 L 415.31 250.08 L 416.79 245.33 L 418.27 240.66 L 419.75 236.09 L 421.23 231.61 L 422.71 227.22 L 424.19 222.92 L 425.66 218.72 L 427.14 214.62 L 428.62 210.61 L 430.10 206.70 L 431.58 202.89 L 433.06 199.17 L 434.54 195.55 L 436.02 192.03 L 437.49 188.60 L 438.97 185.26 L 440.45 182.02 L 441.93 178.87 L 443.41 175.81 L 444.89 172.85 L 446.37 169.97 L 447.84 167.18 L 449.32 164.48 L 450.80 161.86 L 452.28 159.32 L 453.76 156.87 L 455.24 154.49 L 456.72 152.20 L 458.20 149.98 L 459.67 147.83 L 461.15 145.76 L 462.63 143.76 L 464.11 141.82 L 465.59 139.96 L 467.07 138.16 L 468.55 136.42 L 470.03 134.75 L 471.50 133.14 L 472.98 131.58 L 474.46 130.08 L 475.94 128.64 L 477.42 127.25 L 478.90 125.91 L 480.38 124.63 L 481.85 123.39 L 483.33 122.19 L 484.81 121.04 L 486.29 119.94 L 487.77 118.88 L 489.25 117.86 L 490.73 116.88 L 492.21 115.93 L 493.68 115.03 L 495.16 114.15 L 496.64 113.32 L 498.12 112.51 L 499.60 111.74 L 501.08 111.00 L 502.56 110.29 L 504.04 109.60 L 505.51 108.94 L 506.99 108.31 L 508.47 107.71 L 509.95 107.13 L 511.43 106.57 L 512.91 106.03 L 514.39 105.52 L 515.86 105.03 L 517.34 104.56 L 518.82 104.10 L 520.30 103.67 L 521.78 103.25 L 523.26 102.85 L 524.74 102.47 L 526.22 102.10 L 527.69 101.74 L 529.17 101.41 L 530.65 101.08 L 532.13 100.77 L 533.61 100.47 L 535.09 100.19 L 536.57 99.91 L 538.05 99.65 L 539.52 99.40 L 541.00 99.16 L 542.48 98.92 L 543.96 98.70 L 545.44 98.49 L 546.92 98.29 L 548.40 98.09 L 549.87 97.90 L 551.35 97.72 L 552.83 97.55 L 554.31 97.39 L 555.79 97.23 L 557.27 97.08 L 558.75 96.93 L 560.23 96.79 L 561.70 96.66 L 563.18 96.53 L 564.66 96.41 L 566.14 96.30 L 567.62 96.18 L 569.10 96.08 L 570.58 95.97 L 572.06 95.87 L 573.53 95.78 L 575.01 95.69 L 576.49 95.60 L 577.97 95.52 L 579.45 95.44 L 580.93 95.36 L 582.41 95.29 L 583.88 95.22 L 585.36 95.15 L 586.84 95.09 L 588.32 95.03 L 589.80 94.97 L 591.28 94.91 L 592.76 94.86 L 594.24 94.81 L 595.71 94.76 L 597.19 94.71 L 598.67 94.67 L 600.15 94.62 L 601.63 94.58 L 603.11 94.54 L 604.59 94.50 L 606.07 94.47 L 607.54 94.43 L 609.02 94.40 L 610.50 94.36 L 611.98 94.33 L 613.46 94.30 L 614.94 94.28 L 616.42 94.25 L 617.89 94.22 L 619.37 94.20 L 620.85 94.17 L 622.33 94.15 L 623.81 94.13 L 625.29 94.11 L 626.77 94.09 L 628.25 94.07 L 629.72 94.05 L 631.20 94.03 L 632.68 94.02 L 634.16 94.00 L 635.64 93.99 L 637.12 93.97 L 638.60 93.96 L 640.08 93.94 L 641.55 93.93 L 643.03 93.92 L 644.51 93.91 L 645.99 93.89 L 647.47 93.88 L 648.95 93.87 L 650.43 93.86 L 651.90 93.85 L 653.38 93.84 L 654.86 93.84 L 656.34 93.83 L 657.82 93.82 L 659.30 93.81 L 660.78 93.80 L 662.26 93.80 L 663.73 93.79 L 665.21 93.78 L 666.69 93.78 L 668.17 93.77 L 669.65 93.77 L 671.13 93.76 L 672.61 93.75 L 674.09 93.75 L 675.56 93.74 L 677.04 93.74 L 678.52 93.74 L 680.00 93.73" fill="none" stroke="#003366" stroke-width="4" stroke-linecap="round" opacity="0.34"
        stroke-dasharray="929.44" stroke-dashoffset="929.44">
    <animate attributeName="stroke-dashoffset" from="929.44" to="0" dur="2.2s" begin="0.2s" fill="freeze" />
  </path>
</svg>
